<svg xmlns="http://www.w3.org/2000/svg" width="23.718" height="23.718" viewBox="0 0 23.718 23.718">
  <g id="Group_20351" data-name="Group 20351" transform="translate(-514.393 -157.74)">
    <path id="Path_2481" data-name="Path 2481" d="M526.2,181.457q-4.561,0-9.122,0a2.486,2.486,0,0,1-2.689-2.678q0-9.192,0-18.384a2.481,2.481,0,0,1,2.666-2.654q9.192,0,18.384,0a2.478,2.478,0,0,1,2.665,2.655q0,9.214,0,18.43a2.473,2.473,0,0,1-2.642,2.63Q530.835,181.461,526.2,181.457Zm-9.84-12.886h8.865v-8.838c-.173-.008-.324-.02-.474-.02q-3.772,0-7.545,0c-.728,0-.847.123-.847.87q0,3.75,0,7.5Zm10.914-8.839v8.844h8.838c.008-.173.02-.323.02-.473q0-3.8,0-7.591c0-.667-.139-.8-.823-.8q-3.8,0-7.591,0C527.588,159.713,527.452,159.724,527.279,159.732Zm-2.055,19.754V170.62h-8.838c-.008.174-.02.324-.02.474q0,3.772,0,7.545c0,.727.124.847.871.847h7.989Zm2.052,0h8c.739,0,.859-.12.859-.859q0-3.75,0-7.5v-.507h-8.863Z" fill="#dd272d"/>
    <path id="Path_2482" data-name="Path 2482" d="M516.72,168.927v-.491q0-3.75,0-7.5c0-.747.119-.87.847-.87q3.772,0,7.545,0c.15,0,.3.012.473.02v8.838Z" transform="translate(-0.356 -0.356)" fill="#f7babf"/>
    <path id="Path_2483" data-name="Path 2483" d="M529.6,160.088c.174-.008.309-.019.446-.019q3.8,0,7.591,0c.684,0,.823.134.823.8q0,3.8,0,7.591c0,.15-.012.3-.02.473H529.6Z" transform="translate(-2.326 -0.356)" fill="#f7babf"/>
    <path id="Path_2484" data-name="Path 2484" d="M525.579,181.811h-7.989c-.747,0-.87-.12-.871-.847q0-3.772,0-7.545c0-.15.013-.3.02-.474h8.838Z" transform="translate(-0.356 -2.326)" fill="#f7babf"/>
    <path id="Path_2485" data-name="Path 2485" d="M529.6,181.812v-8.864h8.863v.507q0,3.75,0,7.5c0,.739-.12.859-.859.859h-8Z" transform="translate(-2.326 -2.326)" fill="#f7babf"/>
  </g>
</svg>
