<svg id="Group_20307" data-name="Group 20307" xmlns="http://www.w3.org/2000/svg" width="28" height="28" viewBox="0 0 28 28">
  <rect id="Rectangle_261" data-name="Rectangle 261" width="28" height="28" fill="#fff" opacity="0"/>
  <g id="Group_20279" data-name="Group 20279" transform="translate(0.933 0.934)">
    <path id="Path_2286" data-name="Path 2286" d="M-168.006,16.333H-143c.01.17.026.33.026.492q0,3.751,0,7.5a2.741,2.741,0,0,1-2.568,2.9,2.841,2.841,0,0,1-.345,0h-19.3a2.661,2.661,0,0,1-2.845-2.464c-.006-.074-.007-.147-.007-.221-.052-2.653-.016-5.308-.016-7.962A1.629,1.629,0,0,1-168.006,16.333Z" transform="translate(169.1 -1.075)" fill="#dd272d"/>
    <path id="Path_2287" data-name="Path 2287" d="M-163.729,10.251a4.738,4.738,0,0,0-.346.577c-.449,1.1-.9,2.2-1.318,3.306a.525.525,0,0,1-.6.4c-.679-.021-1.359,0-2.066,0a1.334,1.334,0,0,1-.07-.353,16.151,16.151,0,0,0-.928-6.2c-.425-1.421.3-2.342,1.8-2.505a.519.519,0,0,1,.4.2C-165.8,7.2-164.746,8.752-163.729,10.251Z" transform="translate(169.174 -0.352)" fill="#dd272d"/>
    <g id="Group_20278" data-name="Group 20278" transform="translate(3.285 0)">
      <path id="Path_2288" data-name="Path 2288" d="M-157.855,9.005c-1.435.331-2.785.649-4.142.943a.5.5,0,0,1-.424-.162c-1.071-1.555-2.121-3.109-3.233-4.744.771-.184,1.484-.352,2.2-.524.609-.141,1.213-.311,1.827-.435a.586.586,0,0,1,.486.1C-160.047,5.759-158.979,7.348-157.855,9.005Z" transform="translate(165.654 -0.258)" fill="#f7babf"/>
      <path id="Path_2289" data-name="Path 2289" d="M-146.3,6.376c-1.289.293-2.524.582-3.765.848a.566.566,0,0,1-.465-.17c-1.19-1.554-2.36-3.109-3.586-4.743.989-.239,1.917-.471,2.849-.684.509-.116,1.1-.394,1.516-.234s.608.776.894,1.2q1.121,1.642,2.236,3.29C-146.514,6.028-146.426,6.178-146.3,6.376Z" transform="translate(164.885 -0.076)" fill="#f7babf"/>
      <path id="Path_2290" data-name="Path 2290" d="M-151.928,7.662c-1.164.269-2.281.53-3.4.78-.989.221-.989.217-1.554-.611-.936-1.376-1.869-2.751-2.844-4.187.989-.24,1.94-.4,2.845-.707a1.473,1.473,0,0,1,1.974.665l.021.042c.827,1.281,1.814,2.459,2.733,3.675C-152.082,7.413-152.025,7.512-151.928,7.662Z" transform="translate(165.259 -0.172)" fill="#f7babf"/>
      <path id="Path_2291" data-name="Path 2291" d="M-148.218.9c1.337-.314,2.583-.638,3.842-.89a1.51,1.51,0,0,1,1.7,1.018c.376,1.229.69,2.479,1.009,3.725a.509.509,0,0,1-.338.636.445.445,0,0,1-.079.018c-.82.205-1.646.4-2.474.575a.4.4,0,0,1-.313-.169C-145.979,4.2-147.073,2.585-148.218.9Z" transform="translate(164.492 0.014)" fill="#f7babf"/>
    </g>
    <path id="Path_2292" data-name="Path 2292" d="M-146.332,10.5c-.578,1.438-1.12,2.807-1.685,4.166a.462.462,0,0,1-.356.191c-1.292.014-2.585.008-3.928.008a3.714,3.714,0,0,1,.1-.4c.477-1.2.947-2.4,1.448-3.586a.645.645,0,0,1,.436-.364C-149.023,10.484-147.73,10.5-146.332,10.5Z" transform="translate(168.049 -0.686)" fill="#dd272d"/>
    <path id="Path_2293" data-name="Path 2293" d="M-152.173,10.5c-.565,1.427-1.108,2.779-1.664,4.122a.5.5,0,0,1-.376.232c-1.292.018-2.583.01-3.957.01.07-.2.117-.357.176-.5.459-1.149.935-2.292,1.371-3.45a.549.549,0,0,1,.627-.424C-154.755,10.509-153.515,10.5-152.173,10.5Z" transform="translate(168.44 -0.685)" fill="#dd272d"/>
    <path id="Path_2294" data-name="Path 2294" d="M-164.038,14.862c.587-1.469,1.123-2.827,1.676-4.167a.45.45,0,0,1,.343-.2c1.309-.014,2.618-.008,4-.008-.408,1.022-.788,1.995-1.183,2.968-.19.468-.289,1.094-.644,1.341s-.951.068-1.445.071C-162.169,14.865-163.049,14.862-164.038,14.862Z" transform="translate(168.831 -0.686)" fill="#dd272d"/>
    <path id="Path_2295" data-name="Path 2295" d="M-141.535,14.83H-146.5l1.724-4.333h2.667a.514.514,0,0,1,.563.461.4.4,0,0,1,0,.075C-141.526,12.291-141.535,13.544-141.535,14.83Z" transform="translate(167.662 -0.686)" fill="#dd272d"/>
  </g>
</svg>
