<svg id="Group_20306" data-name="Group 20306" xmlns="http://www.w3.org/2000/svg" width="28" height="28" viewBox="0 0 28 28">
  <rect id="Rectangle_262" data-name="Rectangle 262" width="28" height="28" fill="#fff" opacity="0"/>
  <g id="Group_20280" data-name="Group 20280" transform="translate(0.936 3.743)">
    <path id="Path_2464" data-name="Path 2464" d="M-85.412,3.2h7.72s-1.518,3.631-4.284,3.631S-85.427,3.888-85.412,3.2Z" transform="translate(95.077 -2.703)" fill="#f7babf"/>
    <path id="Path_2465" data-name="Path 2465" d="M-70.13,7.734l-.037-.037-4.08-3.569a5.864,5.864,0,0,0-3.918-1.459H-87.11a5.9,5.9,0,0,0-3.93,1.459L-95.107,7.7a1.85,1.85,0,0,0-.187,2.6l.037.037L-93,12.8a1.955,1.955,0,0,0,2.607.238l.636-.475v8.2a3.174,3.174,0,0,0,3.219,3.119h7.8a3.173,3.173,0,0,0,3.219-3.119v-8.2l.636.475a1.955,1.955,0,0,0,2.607-.238l2.258-2.47A1.836,1.836,0,0,0-70.13,7.734ZM-83.267,6.349a3.108,3.108,0,0,1-2.42-2.432h6.1A3.119,3.119,0,0,1-83.267,6.349Z" transform="translate(95.739 -2.669)" fill="#dd272d"/>
  </g>
</svg>
