<svg id="Group_20308" data-name="Group 20308" xmlns="http://www.w3.org/2000/svg" width="28" height="28" viewBox="0 0 28 28">
  <rect id="Rectangle_260" data-name="Rectangle 260" width="28" height="28" fill="#fff" opacity="0"/>
  <g id="Group_20277" data-name="Group 20277" transform="translate(0.817 2.046)">
    <path id="Path_2456" data-name="Path 2456" d="M-120.843,7.787v-3.7c0-.509-.009-1.019,0-1.529.014-.56.312-.884.777-.875.447.007.722.319.749.852.007.135,0,.272,0,.408V7.759c.241.011.422.027.6.027,1.512,0,3.024,0,4.535,0a5.3,5.3,0,0,1,5.543,4.528q.785,3.892,1.52,7.793a3.778,3.778,0,0,1-2.328,4.236,3.816,3.816,0,0,1-4.643-1.513c-.837-1.3-1.668-2.6-2.479-3.916a.787.787,0,0,0-.775-.426q-2.726.028-5.452,0a.825.825,0,0,0-.819.441c-.808,1.316-1.621,2.631-2.486,3.91a3.81,3.81,0,0,1-6.579-.242,4.106,4.106,0,0,1-.323-2.869c.513-2.562,1-5.129,1.515-7.691a5.227,5.227,0,0,1,4.763-4.205c1.71-.091,3.429-.037,5.144-.047C-121.353,7.786-121.136,7.787-120.843,7.787Zm-6.194,6.152c.095,1.18.241,1.493.752,1.477,1.02-.035.729-.894.846-1.486.6-.074,1.423.154,1.459-.735.042-1.022-.877-.739-1.462-.848-.129-1.209-.276-1.513-.787-1.479-.985.064-.714.882-.808,1.478-.606.1-1.49-.159-1.472.819C-128.49,14.1-127.635,13.843-127.037,13.939Zm4.6,1.483v0a9.014,9.014,0,0,0,.911-.006.684.684,0,0,0,.668-.749.675.675,0,0,0-.683-.734,14.956,14.956,0,0,0-1.721,0,.68.68,0,0,0-.673.746.7.7,0,0,0,.689.736A7.828,7.828,0,0,0-122.439,15.422Zm4.707-.006a7.162,7.162,0,0,0,.86-.007.692.692,0,0,0,.658-.762.67.67,0,0,0-.654-.71,15.216,15.216,0,0,0-1.773,0,.664.664,0,0,0-.653.709.685.685,0,0,0,.65.765A7.83,7.83,0,0,0-117.732,15.417Zm3.064-3.827a.759.759,0,0,0,.71.775.764.764,0,0,0,.81-.727.762.762,0,0,0-.712-.774A.758.758,0,0,0-114.668,11.59Zm-.009,1.537a.761.761,0,0,0-.8-.734.757.757,0,0,0-.718.767.76.76,0,0,0,.8.734A.759.759,0,0,0-114.677,13.127Zm2.3.771a.766.766,0,0,0,.762-.727.765.765,0,0,0-.759-.781.764.764,0,0,0-.762.727A.764.764,0,0,0-112.381,13.9Zm-1.526.021a.762.762,0,0,0-.761.727.762.762,0,0,0,.758.78.765.765,0,0,0,.762-.777A.767.767,0,0,0-113.907,13.919Z" transform="translate(133.109 -1.682)" fill="#dd272d"/>
    <g id="Group_20276" data-name="Group 20276" transform="translate(4.6 9.18)">
      <path id="Path_2457" data-name="Path 2457" d="M-116.708,16.323a7.83,7.83,0,0,1-.911-.006.685.685,0,0,1-.65-.765.664.664,0,0,1,.653-.709,15.216,15.216,0,0,1,1.773,0,.67.67,0,0,1,.654.71.692.692,0,0,1-.658.762A7.162,7.162,0,0,1-116.708,16.323Z" transform="translate(127.484 -11.768)" fill="#f7babf"/>
      <g id="Group_20275" data-name="Group 20275">
        <path id="Path_2458" data-name="Path 2458" d="M-126.7,14.62c-.6-.1-1.453.157-1.471-.774-.018-.978.866-.719,1.472-.819.094-.6-.177-1.414.808-1.478.511-.034.657.27.787,1.479.585.109,1.5-.174,1.462.848-.036.888-.858.66-1.459.735-.117.592.174,1.45-.846,1.486C-126.455,16.113-126.6,15.8-126.7,14.62Z" transform="translate(128.167 -11.543)" fill="#f7babf"/>
        <path id="Path_2459" data-name="Path 2459" d="M-121.759,16.329a7.828,7.828,0,0,1-.81-.006.7.7,0,0,1-.689-.736.68.68,0,0,1,.673-.746,14.955,14.955,0,0,1,1.721,0,.675.675,0,0,1,.683.734.684.684,0,0,1-.668.749,9.014,9.014,0,0,1-.911.006Z" transform="translate(127.828 -11.768)" fill="#f7babf"/>
        <path id="Path_2460" data-name="Path 2460" d="M-113.3,12.27a.758.758,0,0,1,.808-.726.762.762,0,0,1,.712.774.764.764,0,0,1-.81.727A.759.759,0,0,1-113.3,12.27Z" transform="translate(127.141 -11.542)" fill="#f7babf"/>
        <path id="Path_2461" data-name="Path 2461" d="M-113.424,13.921a.759.759,0,0,1-.719.767.76.76,0,0,1-.8-.734.757.757,0,0,1,.718-.767A.761.761,0,0,1-113.424,13.921Z" transform="translate(127.255 -11.656)" fill="#f7babf"/>
        <path id="Path_2462" data-name="Path 2462" d="M-110.9,14.691a.764.764,0,0,1-.758-.781.764.764,0,0,1,.762-.727.765.765,0,0,1,.759.781A.766.766,0,0,1-110.9,14.691Z" transform="translate(127.028 -11.656)" fill="#f7babf"/>
        <path id="Path_2463" data-name="Path 2463" d="M-112.54,14.826a.767.767,0,0,1,.76.73.765.765,0,0,1-.762.777.762.762,0,0,1-.758-.78A.763.763,0,0,1-112.54,14.826Z" transform="translate(127.141 -11.769)" fill="#f7babf"/>
      </g>
    </g>
  </g>
</svg>
