<svg id="Group_20305" data-name="Group 20305" xmlns="http://www.w3.org/2000/svg" width="28" height="28" viewBox="0 0 28 28">
  <rect id="Rectangle_263" data-name="Rectangle 263" width="28" height="28" fill="#fff" opacity="0"/>
  <g id="Group_20281" data-name="Group 20281" transform="translate(4.667 0.933)">
    <circle id="Ellipse_83" data-name="Ellipse 83" cx="1.55" cy="1.55" r="1.55" transform="translate(7.587 4.412)" fill="#f7babf"/>
    <path id="Path_2466" data-name="Path 2466" d="M-46.287,0H-58.5a3.035,3.035,0,0,0-3.031,3.031V21.914A3.035,3.035,0,0,0-58.5,24.944h.372v.046a1.144,1.144,0,0,0,1.142,1.143h.228a1.144,1.144,0,0,0,1.143-1.143v-.046h6.437v.046a1.145,1.145,0,0,0,1.143,1.143h.228a1.144,1.144,0,0,0,1.143-1.143v-.046h.372a3.035,3.035,0,0,0,3.031-3.031V3.031A3.035,3.035,0,0,0-46.287,0Zm-6.1,2.789a3.176,3.176,0,0,1,3.172,3.172,3.176,3.176,0,0,1-3.172,3.173,3.176,3.176,0,0,1-3.172-3.173A3.176,3.176,0,0,1-52.392,2.789ZM-58.1,16.066a5.709,5.709,0,0,1,5.709-5.708,5.709,5.709,0,0,1,5.709,5.708,5.71,5.71,0,0,1-5.709,5.709A5.71,5.71,0,0,1-58.1,16.066Z" transform="translate(61.528)" fill="#dd272d"/>
    <circle id="Ellipse_84" data-name="Ellipse 84" cx="3.498" cy="3.498" r="3.498" transform="translate(4.93 13.462) rotate(-13.235)" fill="#f7babf"/>
  </g>
</svg>
