<svg id="tik-tok" xmlns="http://www.w3.org/2000/svg" width="24.477" height="27.722" viewBox="0 0 24.477 27.722">
  <g id="Group_2349" data-name="Group 2349" transform="translate(3.208 1.25)">
    <path id="Path_2170" data-name="Path 2170" d="M113.25,212.823a3.9,3.9,0,0,0-2.028,7.269,3.842,3.842,0,0,1-.625-2.05,3.933,3.933,0,0,1,3.958-3.969,4.088,4.088,0,0,1,1.245.2v-4.377a8.609,8.609,0,0,0-1.245-.092h-.06v3.219A4.088,4.088,0,0,0,113.25,212.823Z" transform="translate(-108.178 -199.698)" fill="#f00044"/>
    <path id="Path_2171" data-name="Path 2171" d="M337.363,24H336.2a6.685,6.685,0,0,0,2.528,4.029A6.734,6.734,0,0,1,337.363,24Z" transform="translate(-322.749 -24)" fill="#f00044"/>
    <path id="Path_2172" data-name="Path 2172" d="M110.069,144.42a6.769,6.769,0,0,1-1.25-.12v3.137a10.785,10.785,0,0,1-4.262-.864,11.135,11.135,0,0,1-2.425-1.414l.022,9.672a8.091,8.091,0,0,1-2.425,5.752,8.248,8.248,0,0,1-4.61,2.305,8.605,8.605,0,0,1-1.245.092,8.258,8.258,0,0,1-5.073-1.718,7.362,7.362,0,0,0,.527.571,8.285,8.285,0,0,0,5.855,2.4,8.6,8.6,0,0,0,1.245-.092,8.247,8.247,0,0,0,4.61-2.305,8.091,8.091,0,0,0,2.425-5.752l-.082-9.672a10.681,10.681,0,0,0,2.425,1.414,10.92,10.92,0,0,0,4.262.864" transform="translate(-88.8 -137.76)" fill="#f00044"/>
  </g>
  <path id="Path_2173" data-name="Path 2173" d="M33.518,190.459a8.274,8.274,0,0,1,5.807-2.409v-1.158a8.6,8.6,0,0,0-1.245-.092,8.266,8.266,0,0,0-5.866,2.409,8.125,8.125,0,0,0,.011,11.569,8.278,8.278,0,0,0,.777.68,8.1,8.1,0,0,1-1.9-5.214A8.2,8.2,0,0,1,33.518,190.459Z" transform="translate(-29.8 -176.698)" fill="#08fff9"/>
  <path id="Path_2174" data-name="Path 2174" d="M386.834,100.612V99.448h-.011A6.635,6.635,0,0,1,382.8,98.1,6.642,6.642,0,0,0,386.834,100.612Z" transform="translate(-363.608 -92.821)" fill="#08fff9"/>
  <path id="Path_2175" data-name="Path 2175" d="M147.91,24.444a4.085,4.085,0,0,0,1.468-.19,3.918,3.918,0,0,0,2.713-3.713l.005-6.47V2.25h3.11a6.776,6.776,0,0,1-.13-1.25h-4.284V12.814l-.005,6.47A3.918,3.918,0,0,1,148.073,23a3.858,3.858,0,0,1-1.468.19,3.989,3.989,0,0,1-1.805-.549,3.966,3.966,0,0,0,3.11,1.805Z" transform="translate(-138.548 -1)" fill="#08fff9"/>
  <path id="Path_2176" data-name="Path 2176" d="M62.02,49.129a8.248,8.248,0,0,0,4.61-2.305,8.091,8.091,0,0,0,2.425-5.752L69.034,31.4a10.681,10.681,0,0,0,2.425,1.414,10.92,10.92,0,0,0,4.262.864V30.54a6.642,6.642,0,0,1-4.034-2.512A6.661,6.661,0,0,1,69.159,24H66.043V35.814l-.005,6.47A3.918,3.918,0,0,1,63.325,46a3.858,3.858,0,0,1-1.468.19,3.967,3.967,0,0,1-3.11-1.8,3.9,3.9,0,0,1,2.028-7.269,4.087,4.087,0,0,1,1.245.2V34.1A8.274,8.274,0,0,0,56.214,36.5,8.143,8.143,0,0,0,53.8,42.284,8.039,8.039,0,0,0,55.7,47.5a8.269,8.269,0,0,0,5.073,1.718A7.9,7.9,0,0,0,62.02,49.129Z" transform="translate(-52.495 -22.75)"/>
</svg>
