<svg id="Group_20303" data-name="Group 20303" xmlns="http://www.w3.org/2000/svg" width="28" height="28" viewBox="0 0 28 28">
  <rect id="Rectangle_265" data-name="Rectangle 265" width="28" height="28" fill="#fff" opacity="0"/>
  <g id="Group_20283" data-name="Group 20283" transform="translate(6.533 0.933)">
    <path id="Path_2469" data-name="Path 2469" d="M18.551,5.829H16.6V1.191A1.131,1.131,0,0,0,15.555,0H11.365A1.139,1.139,0,0,0,10.3,1.191V5.829H8.406a2.249,2.249,0,0,0-2.24,2.249V9.208H8a2.034,2.034,0,0,1,2,1.652h1.848V10.6a.48.48,0,0,1,.476-.485h2.315a.482.482,0,0,1,.485.485v.261h1.8a2.036,2.036,0,0,1,2.007-1.652h1.867V8.079A2.249,2.249,0,0,0,18.551,5.829Zm-2.9,0h-4.4V2.143h4.4Z" transform="translate(-6.166 0.004)" fill="#dd272d"/>
    <path id="Path_2470" data-name="Path 2470" d="M19.758,10.886h1.867v8.559H19.758a1.1,1.1,0,0,1-1.092-1.092V11.978A1.087,1.087,0,0,1,19.758,10.886Z" transform="translate(-6.999 -0.722)" fill="#f7babf"/>
    <path id="Path_2471" data-name="Path 2471" d="M16.881,18.471V12.656H15.117v.261a.474.474,0,0,1-.485.476H12.317a.472.472,0,0,1-.476-.476v-.261H10.03v5.815a2.051,2.051,0,0,1-2.053,2.044H6.166v2.94a2.241,2.241,0,0,0,2.24,2.24h.653v.019a1.265,1.265,0,0,0,2.529,0v-.019h3.724v.019a1.265,1.265,0,0,0,2.529,0v-.019h.709a2.241,2.241,0,0,0,2.24-2.24v-2.94H18.925A2.043,2.043,0,0,1,16.881,18.471ZM11.1,25.713H9.535v-.019h1.577C11.113,25.7,11.1,25.7,11.1,25.713Zm-.784-1.419a.48.48,0,0,1-.476-.485V22.176A1.627,1.627,0,0,1,11.5,20.543h3.939a1.615,1.615,0,0,1,1.624,1.633v1.633a.48.48,0,0,1-.476.485Zm7.047,1.419H15.789v-.019h1.577Z" transform="translate(-6.166 -0.84)" fill="#dd272d"/>
    <path id="Path_2472" data-name="Path 2472" d="M7.977,19.445H6.166V10.886H8a1.068,1.068,0,0,1,1.073,1.073v6.393A1.093,1.093,0,0,1,7.977,19.445Z" transform="translate(-6.166 -0.722)" fill="#f7babf"/>
  </g>
</svg>
