<svg id="Group_20335" data-name="Group 20335" xmlns="http://www.w3.org/2000/svg" width="27.959" height="27.95" viewBox="0 0 27.959 27.95">
  <path id="Path_2476" data-name="Path 2476" d="M53.7,67.908V66.271a2.183,2.183,0,0,0,.047-.262,13.29,13.29,0,0,1,.778-3.666A13.98,13.98,0,0,1,81.41,69.71,13.986,13.986,0,0,1,70.089,80.848c-.527.091-1.06.144-1.59.215H66.861c-.369-.044-.739-.081-1.106-.133A13.985,13.985,0,0,1,53.919,69.494C53.827,68.969,53.774,68.437,53.7,67.908Zm25-.812A11.028,11.028,0,1,0,67.673,78.115,11.067,11.067,0,0,0,78.708,67.1Z" transform="translate(-53.704 -53.113)" fill="#67786f"/>
  <path id="Path_2477" data-name="Path 2477" d="M77.069,67.083a9.389,9.389,0,1,1-9.4-9.381A9.422,9.422,0,0,1,77.069,67.083ZM68.5,73.874V72.555c0-.576,0-.576.565-.669a2.7,2.7,0,0,0,2.409-2.38,2.291,2.291,0,0,0-1.145-2.557,15.523,15.523,0,0,0-2.05-.787c-.512-.181-1.053-.293-1.549-.508a.961.961,0,0,1-.428-1.509,1.25,1.25,0,0,1,.851-.437,3.524,3.524,0,0,1,1.923.247c.43.177.836.411,1.266.627l.811-1.493a6.29,6.29,0,0,0-2.317-.979c-.266-.045-.358-.138-.343-.412.025-.468.007-.938.007-1.41H66.863V62.05a2.167,2.167,0,0,0-.3.081,7.309,7.309,0,0,0-1.342.633,2.741,2.741,0,0,0-1.056,2.755,2.279,2.279,0,0,0,1.657,1.846c.549.212,1.123.358,1.68.551a15.09,15.09,0,0,1,1.42.541.875.875,0,0,1,.525.956.887.887,0,0,1-.761.783,4,4,0,0,1-2.047-.083,6.309,6.309,0,0,1-2.077-1.01l-.834,1.627a7.253,7.253,0,0,0,3.144,1.222v1.922Z" transform="translate(-53.704 -53.113)" fill="#67786f"/>
  <path id="Path_2478" data-name="Path 2478" d="M68.5,73.874H66.871V71.952a7.253,7.253,0,0,1-3.144-1.222l.834-1.627a6.309,6.309,0,0,0,2.077,1.01,4,4,0,0,0,2.047.083.887.887,0,0,0,.761-.783.875.875,0,0,0-.525-.956,15.09,15.09,0,0,0-1.42-.541c-.557-.193-1.131-.339-1.68-.551a2.279,2.279,0,0,1-1.657-1.846,2.741,2.741,0,0,1,1.056-2.755,7.309,7.309,0,0,1,1.342-.633,2.167,2.167,0,0,1,.3-.081V60.288H68.5c0,.472.018.942-.007,1.41-.015.274.077.367.343.412a6.29,6.29,0,0,1,2.317.979l-.811,1.493c-.43-.216-.836-.45-1.266-.627a3.524,3.524,0,0,0-1.923-.247,1.25,1.25,0,0,0-.851.437.961.961,0,0,0,.428,1.509c.5.215,1.037.327,1.549.508a15.523,15.523,0,0,1,2.05.787,2.291,2.291,0,0,1,1.145,2.557,2.7,2.7,0,0,1-2.409,2.38c-.565.093-.565.093-.565.669Z" transform="translate(-53.704 -53.113)" fill="#fec23e"/>
</svg>
