<svg id="youtube_1_" data-name="youtube (1)" xmlns="http://www.w3.org/2000/svg" width="28.663" height="20.069" viewBox="0 0 28.663 20.069">
  <path id="Path_2057" data-name="Path 2057" d="M28.072,3.14A3.591,3.591,0,0,0,25.546.614C23.3,0,14.331,0,14.331,0S5.359,0,3.116.591A3.664,3.664,0,0,0,.59,3.14,37.84,37.84,0,0,0,0,10.034a37.7,37.7,0,0,0,.59,6.894,3.592,3.592,0,0,0,2.526,2.526c2.266.614,11.215.614,11.215.614s8.972,0,11.215-.59a3.591,3.591,0,0,0,2.526-2.526,37.841,37.841,0,0,0,.59-6.894,35.917,35.917,0,0,0-.59-6.918Zm0,0" transform="translate(0 0)" fill="red"/>
  <path id="Path_2058" data-name="Path 2058" d="M204.969,111.079l7.461-4.3-7.461-4.3Zm0,0" transform="translate(-193.494 -96.747)" fill="#fff"/>
</svg>
