<svg id="Component_63_1" data-name="Component 63 – 1" xmlns="http://www.w3.org/2000/svg" xmlns:xlink="http://www.w3.org/1999/xlink" width="79.682" height="48.198" viewBox="0 0 79.682 48.198">
  <defs>
    <linearGradient id="linear-gradient" x1="0.5" y1="1" x2="0.5" gradientUnits="objectBoundingBox">
      <stop offset="0" stop-color="#fc8f30"/>
      <stop offset="0.397" stop-color="#e2604a"/>
      <stop offset="1" stop-color="#bf074c"/>
    </linearGradient>
  </defs>
  <g id="Group_12594" data-name="Group 12594">
    <path id="Path_16" data-name="Path 16" d="M61.959,48.2H0L17.673,0h62.01Z" fill="url(#linear-gradient)"/>
    <path id="Path_17" data-name="Path 17" d="M54.664,42.575H0L15.263,0H70.075Z" transform="translate(4.853 2.41)" fill="#fff" opacity="0"/>
  </g>
  <path id="Path_2236" data-name="Path 2236" d="M21.087,2a8.752,8.752,0,0,1-2.484.67,4.3,4.3,0,0,0,1.9-2.356,8.78,8.78,0,0,1-2.748,1.033A4.352,4.352,0,0,0,14.6,0a4.293,4.293,0,0,0-4.326,4.258,4.192,4.192,0,0,0,.112.971A12.347,12.347,0,0,1,1.468.779,4.182,4.182,0,0,0,.882,2.92,4.241,4.241,0,0,0,2.806,6.465a4.355,4.355,0,0,1-1.96-.534v.054a4.279,4.279,0,0,0,3.47,4.175,4.388,4.388,0,0,1-1.954.074,4.324,4.324,0,0,0,4.043,2.957,8.764,8.764,0,0,1-5.374,1.822A8.745,8.745,0,0,1,0,14.956a12.384,12.384,0,0,0,6.631,1.914A12.328,12.328,0,0,0,14.4,14.226a12.271,12.271,0,0,0,4.541-9.474c0-.185,0-.368-.013-.551A8.707,8.707,0,0,0,21.087,2Zm0,0" transform="translate(28.83 15.412)" fill="#fff"/>
</svg>
