<svg id="Component_62_1" data-name="Component 62 – 1" xmlns="http://www.w3.org/2000/svg" xmlns:xlink="http://www.w3.org/1999/xlink" width="68.124" height="48.198" viewBox="0 0 68.124 48.198">
  <defs>
    <linearGradient id="linear-gradient" x1="0.5" y1="1" x2="0.5" gradientUnits="objectBoundingBox">
      <stop offset="0" stop-color="#fc8f30"/>
      <stop offset="0.397" stop-color="#e2604a"/>
      <stop offset="1" stop-color="#bf074c"/>
    </linearGradient>
  </defs>
  <g id="Group_12907" data-name="Group 12907">
    <g id="Group_12592" data-name="Group 12592">
      <g id="Group_2352" data-name="Group 2352">
        <path id="Path_16" data-name="Path 16" d="M68.124,48.2H0L17.673,0H68.124Z" fill="url(#linear-gradient)"/>
        <path id="Path_17" data-name="Path 17" d="M59.287,42.575H0L15.263,0H59.287Z" transform="translate(5.623 2.41)" fill="#fff"/>
      </g>
    </g>
    <g id="Group_12684" data-name="Group 12684" transform="translate(555.033 -347.361)">
      <path id="Path_2237" data-name="Path 2237" d="M-521.377,374.862a2.025,2.025,0,0,1,1.5-.6,1.933,1.933,0,0,1,1.805,1.416,1.963,1.963,0,0,1-.747,2.2c-.132.095-.247.157-.211.372a4.521,4.521,0,0,1-1.427,4.1,7.9,7.9,0,0,1-4.212,2.154,9.791,9.791,0,0,1-7.345-1.221,5.2,5.2,0,0,1-2.508-3.252,11.409,11.409,0,0,1-.1-1.744.486.486,0,0,0-.13-.33,2.027,2.027,0,0,1-.508-2.964,1.978,1.978,0,0,1,2.911-.185c.016.015.039.023-.02-.01a26.344,26.344,0,0,1,2.511-1.072,26.645,26.645,0,0,1,2.677-.565c.241-1.1.5-2.283.757-3.461.111-.506.219-1.012.335-1.517.089-.386.2-.46.582-.376,1.068.235,2.135.473,3.2.722a.346.346,0,0,0,.431-.148,1.424,1.424,0,0,1,1.809-.478,1.516,1.516,0,0,1,.807,1.706,1.5,1.5,0,0,1-1.487,1.16,1.5,1.5,0,0,1-1.4-1.261.374.374,0,0,0-.2-.255c-1.016-.247-2.037-.476-3.106-.721l-1.035,4.718A9.694,9.694,0,0,1-521.377,374.862Zm-7.25,3.395a1.474,1.474,0,0,0-1.472-1.5,1.481,1.481,0,0,0-1.455,1.49,1.459,1.459,0,0,0,1.475,1.493A1.453,1.453,0,0,0-528.627,378.257Zm6.5.015a1.479,1.479,0,0,0-1.462-1.514,1.477,1.477,0,0,0-1.464,1.477,1.459,1.459,0,0,0,1.46,1.506A1.465,1.465,0,0,0-522.123,378.271Zm-4.709,4.579c.366-.034.735-.049,1.1-.107a4.07,4.07,0,0,0,2.049-.835c.191-.161.338-.347.139-.587s-.395-.139-.6.025a1.818,1.818,0,0,1-.521.33,5.189,5.189,0,0,1-4.967-.4.336.336,0,0,0-.493.027.328.328,0,0,0,.039.516,3.691,3.691,0,0,0,.615.439A5.9,5.9,0,0,0-526.832,382.85Z" transform="translate(12 -5)" fill="#77838f"/>
    </g>
  </g>
</svg>
