<svg version="1.2" baseProfile="tiny-ps" xmlns="http://www.w3.org/2000/svg" viewBox="0 0 69 42" width="69" height="42">
	<title>icon_twitter-svg</title>
	<defs>
		<linearGradient id="grd1" gradientUnits="userSpaceOnUse"  x1="34.363" y1="41.314" x2="34.363" y2="0">
			<stop offset="0" stop-color="#fc8f30"  />
			<stop offset="0.397" stop-color="#e2604a"  />
			<stop offset="1" stop-color="#bf074c"  />
		</linearGradient>
	</defs>
	<style>
		tspan { white-space:pre }
		.shp0 { fill: url(#grd1) } 
		.shp1 { fill: #ffffff } 
		.shp2 { fill: #77838f } 
	</style>
	<g id="Group_12594">
		<path id="Path_16" class="shp0" d="M53.44 41.31L0 41.31L15.24 0L68.73 0L53.44 41.31Z" />
		<path id="Path_17" class="shp1" d="M51.33 38.56L4.19 38.56L17.35 2.07L64.63 2.07L51.33 38.56Z" />
	</g>
	<path id="Path_2236" class="shp2" d="M43.2 14.92C43.03 15 42.86 15.07 42.68 15.13C42.51 15.19 42.33 15.24 42.15 15.29C41.97 15.34 41.79 15.38 41.61 15.41C41.43 15.45 41.24 15.48 41.06 15.5C41.25 15.39 41.43 15.26 41.6 15.11C41.77 14.97 41.92 14.81 42.06 14.64C42.2 14.47 42.33 14.28 42.43 14.09C42.54 13.89 42.63 13.69 42.7 13.48C42.51 13.59 42.33 13.68 42.13 13.77C41.94 13.86 41.75 13.95 41.55 14.02C41.35 14.1 41.15 14.16 40.94 14.22C40.74 14.28 40.53 14.32 40.33 14.36C40.15 14.18 39.96 14.02 39.75 13.87C39.54 13.73 39.32 13.61 39.08 13.51C38.85 13.41 38.61 13.34 38.36 13.29C38.11 13.24 37.86 13.21 37.61 13.21C37.12 13.21 36.64 13.3 36.19 13.48C35.74 13.66 35.33 13.93 34.98 14.27C34.63 14.61 34.36 15.01 34.17 15.45C33.98 15.9 33.88 16.38 33.87 16.86C33.87 16.93 33.88 17 33.88 17.07C33.88 17.14 33.89 17.21 33.9 17.28C33.91 17.35 33.92 17.42 33.93 17.49C33.94 17.56 33.95 17.62 33.97 17.69C33.23 17.66 32.5 17.55 31.79 17.36C31.07 17.18 30.38 16.92 29.72 16.59C29.06 16.26 28.44 15.87 27.86 15.41C27.28 14.96 26.75 14.44 26.28 13.88C26.2 14.02 26.12 14.16 26.06 14.31C26 14.45 25.94 14.61 25.9 14.76C25.86 14.92 25.83 15.07 25.81 15.23C25.78 15.39 25.77 15.55 25.77 15.71C25.77 16.01 25.81 16.31 25.89 16.6C25.96 16.9 26.07 17.18 26.22 17.44C26.36 17.71 26.54 17.95 26.74 18.17C26.95 18.39 27.18 18.59 27.43 18.75C27.29 18.75 27.14 18.73 26.99 18.71C26.85 18.69 26.7 18.66 26.56 18.62C26.42 18.58 26.28 18.54 26.14 18.48C26 18.43 25.87 18.36 25.74 18.29L25.74 18.34C25.74 18.76 25.82 19.18 25.97 19.57C26.11 19.97 26.32 20.34 26.59 20.66C26.87 20.99 27.19 21.26 27.56 21.47C27.92 21.69 28.32 21.84 28.74 21.92C28.6 21.96 28.46 21.98 28.32 22.01C28.18 22.03 28.04 22.04 27.9 22.05C27.75 22.05 27.61 22.05 27.47 22.04C27.33 22.03 27.19 22.01 27.05 21.98C27.17 22.35 27.35 22.69 27.58 23C27.8 23.3 28.08 23.58 28.39 23.8C28.7 24.03 29.04 24.2 29.41 24.33C29.77 24.45 30.15 24.51 30.54 24.52C30.21 24.77 29.86 24.99 29.49 25.19C29.13 25.38 28.74 25.55 28.35 25.68C27.96 25.81 27.55 25.91 27.14 25.98C26.73 26.05 26.32 26.08 25.9 26.08C25.83 26.08 25.75 26.08 25.68 26.08C25.6 26.07 25.53 26.07 25.46 26.07C25.38 26.06 25.31 26.06 25.23 26.05C25.16 26.05 25.09 26.04 25.01 26.03C25.44 26.3 25.88 26.53 26.34 26.74C26.8 26.94 27.27 27.12 27.75 27.25C28.24 27.39 28.73 27.5 29.23 27.57C29.73 27.64 30.23 27.67 30.73 27.67C31.33 27.68 31.93 27.63 32.53 27.54C33.12 27.44 33.71 27.3 34.28 27.11C34.85 26.91 35.4 26.67 35.93 26.39C36.46 26.1 36.96 25.77 37.43 25.4C38.04 24.92 38.59 24.36 39.07 23.75C39.56 23.14 39.97 22.48 40.31 21.78C40.65 21.08 40.91 20.35 41.08 19.59C41.26 18.83 41.35 18.06 41.35 17.28C41.35 17.12 41.35 16.97 41.34 16.81C41.52 16.68 41.7 16.55 41.87 16.4C42.03 16.26 42.2 16.11 42.35 15.95C42.51 15.79 42.66 15.63 42.8 15.46C42.94 15.28 43.07 15.11 43.2 14.92L43.2 14.92Z" />
</svg>