<svg id="search_16_" data-name="search(16)" xmlns="http://www.w3.org/2000/svg" width="21" height="21" viewBox="0 0 21 21">
  <path id="Path" d="M4.654,7.019,3.923,9.748,1.251,9.8A10.518,10.518,0,0,1,1.174,0h0L3.553.436,4.6,2.8a6.266,6.266,0,0,0,.059,4.219Z" transform="translate(0 5.671)" fill="#fbbb00"/>
  <path id="Path-2" data-name="Path" d="M10.086,0a10.511,10.511,0,0,1,.183,1.962,10.52,10.52,0,0,1-.23,2.192,10.5,10.5,0,0,1-3.7,6h0l-3-.153L2.922,7.349a6.258,6.258,0,0,0,2.693-3.2H0V0H10.086Z" transform="translate(10.731 8.538)" fill="#518ef8"/>
  <path id="Path-3" data-name="Path" d="M15.822,6h0A10.456,10.456,0,0,1,9.249,8.309,10.5,10.5,0,0,1,0,2.785L3.4,0A6.243,6.243,0,0,0,9.249,4.051,6.208,6.208,0,0,0,12.4,3.2Z" transform="translate(1.251 12.691)" fill="#28b446"/>
  <path id="Path-4" data-name="Path" d="M16.028,2.417,12.627,5.2A6.244,6.244,0,0,0,3.421,8.472L0,5.671H0A10.5,10.5,0,0,1,16.028,2.417Z" transform="translate(1.174)" fill="#f14336"/>
</svg>
